<?xml version="1.0" standalone="no"?>
<!DOCTYPE svg PUBLIC "-//W3C//DTD SVG 20010904//EN"
 "http://www.w3.org/TR/2001/REC-SVG-20010904/DTD/svg10.dtd">
<svg version="1.0" xmlns="http://www.w3.org/2000/svg"
 width="360.000000pt" height="360.000000pt" viewBox="0 0 360.000000 360.000000"
 preserveAspectRatio="xMidYMid meet">
<metadata>
Created by potrace 1.14, written by Peter Selinger 2001-2017
</metadata>
<g transform="translate(0.000000,360.000000) scale(0.100000,-0.100000)"
fill="#000000" stroke="none">
<path d="M284 3571 c-146 -30 -188 -46 -225 -84 -29 -30 -59 -96 -59 -132 0
-16 41 -246 91 -510 64 -337 97 -491 112 -517 11 -21 38 -50 60 -65 57 -40
121 -41 305 -4 162 32 191 45 239 108 41 54 41 115 -1 337 -20 103 -36 196
-36 206 0 14 14 19 82 28 45 6 85 9 89 7 3 -3 9 -62 12 -132 11 -224 51 -497
99 -672 47 -173 116 -316 206 -430 59 -73 59 -74 98 -235 21 -88 39 -164 39
-168 0 -7 -218 -217 -780 -752 -237 -224 -265 -261 -264 -346 0 -124 76 -202
198 -202 78 -1 112 16 274 140 78 59 343 262 590 450 246 188 456 347 467 354
15 10 68 3 279 -37 l261 -49 0 -31 c0 -17 -9 -134 -20 -260 -31 -349 -28 -421
23 -495 35 -53 80 -74 156 -74 111 1 176 49 215 162 8 23 33 156 55 295 115
725 114 710 58 773 -40 47 -50 51 -335 156 -136 50 -248 91 -250 93 -1 1 6 58
16 126 16 105 25 137 61 208 122 241 202 562 246 980 8 80 16 146 18 147 2 3
157 -15 168 -19 3 -1 -11 -90 -32 -197 -45 -231 -48 -289 -16 -344 41 -72 80
-94 218 -122 160 -32 246 -40 291 -25 39 13 92 61 113 101 8 15 41 173 75 351
34 178 74 393 90 476 37 186 37 205 4 271 -37 75 -79 96 -261 132 -181 36
-206 37 -270 5 -82 -41 -96 -71 -139 -295 -21 -107 -40 -198 -43 -202 -4 -4
-48 -2 -99 4 l-93 11 -15 36 c-20 48 -42 70 -89 92 -48 22 -104 24 -148 5 -29
-12 -89 -69 -98 -94 -3 -6 -98 -7 -257 -3 -139 3 -371 3 -515 0 -191 -5 -263
-3 -266 5 -2 6 -23 30 -46 54 -41 40 -45 42 -105 42 -95 0 -157 -39 -175 -111
-6 -24 -12 -26 -108 -36 -56 -7 -105 -9 -108 -5 -4 4 -21 86 -38 182 -39 213
-62 268 -128 307 -63 37 -121 38 -289 4z m3059 -153 c81 -13 110 -33 109 -74
0 -16 -39 -232 -86 -481 -47 -249 -86 -455 -86 -457 0 -3 -11 -13 -24 -21 -23
-15 -35 -14 -168 10 -156 29 -174 36 -183 64 -3 11 28 201 70 423 42 222 81
428 86 458 20 112 36 124 143 103 39 -7 102 -18 139 -25z m-2829 10 c18 -30
189 -943 181 -969 -9 -28 -27 -35 -178 -64 -137 -26 -165 -26 -185 -2 -13 15
-182 900 -182 950 0 19 7 40 16 47 18 16 220 57 286 59 39 1 50 -3 62 -21z
m672 -588 c53 -315 69 -393 106 -515 64 -212 166 -359 296 -424 185 -93 430
-50 566 100 124 138 183 322 261 823 45 282 40 266 71 266 13 0 27 -7 31 -16
8 -21 -13 -262 -38 -434 -52 -361 -111 -567 -226 -793 -29 -57 -40 -97 -55
-192 -31 -199 -33 -247 -12 -266 11 -9 151 -65 313 -125 174 -64 295 -114 299
-123 6 -17 -8 -120 -79 -576 -59 -376 -70 -410 -134 -410 -32 0 -42 5 -52 25
-17 34 -16 74 12 400 31 351 31 372 5 395 -14 13 -107 34 -332 76 -172 33
-326 59 -342 59 -33 0 14 35 -774 -567 -441 -337 -519 -393 -548 -393 -40 0
-70 36 -61 73 4 12 234 239 520 512 283 270 521 500 528 513 11 19 6 49 -36
225 -26 111 -52 211 -58 222 -5 11 -35 54 -67 95 -31 41 -71 100 -89 131 -93
165 -162 469 -191 838 -12 155 -13 314 -3 325 4 4 16 6 28 4 18 -3 24 -25 61
-248z m1100 137 c17 -17 -104 -657 -125 -657 -3 0 -14 22 -24 50 -24 67 -112
161 -177 189 -115 50 -227 48 -331 -4 -61 -31 -143 -122 -167 -186 l-19 -51
-21 74 c-28 96 -47 189 -78 378 -13 85 -27 167 -30 182 l-5 27 93 4 c135 6
877 1 884 -6z m-401 -556 c74 -33 125 -114 125 -196 0 -34 -32 -110 -58 -138
-71 -79 -233 -79 -304 0 -26 28 -58 104 -58 138 0 117 95 215 210 215 25 0 63
-9 85 -19z"/>
</g>
</svg>
